<mxfile host="Electron" agent="Mozilla/5.0 (Windows NT 10.0; Win64; x64) AppleWebKit/537.36 (KHTML, like Gecko) draw.io/28.2.8 Chrome/140.0.7339.240 Electron/38.4.0 Safari/537.36" version="28.2.8">
  <diagram name="Page-1" id="TSdTI1cimzSF285CZ0IQ">
    <mxGraphModel dx="1758" dy="828" grid="1" gridSize="10" guides="1" tooltips="1" connect="1" arrows="1" fold="1" page="1" pageScale="1" pageWidth="850" pageHeight="1100" math="0" shadow="0">
      <root>
        <mxCell id="0" />
        <mxCell id="1" parent="0" />
        <mxCell id="9jR7RLaxLjTVR6PXm3JZ-3" value="" style="edgeStyle=orthogonalEdgeStyle;rounded=0;orthogonalLoop=1;jettySize=auto;html=1;" edge="1" parent="1" source="9jR7RLaxLjTVR6PXm3JZ-1" target="9jR7RLaxLjTVR6PXm3JZ-2">
          <mxGeometry relative="1" as="geometry" />
        </mxCell>
        <mxCell id="9jR7RLaxLjTVR6PXm3JZ-1" value="Failure arises" style="rounded=0;whiteSpace=wrap;html=1;" vertex="1" parent="1">
          <mxGeometry x="360" y="120" width="120" height="60" as="geometry" />
        </mxCell>
        <mxCell id="9jR7RLaxLjTVR6PXm3JZ-11" value="" style="edgeStyle=orthogonalEdgeStyle;rounded=0;orthogonalLoop=1;jettySize=auto;html=1;" edge="1" parent="1" source="9jR7RLaxLjTVR6PXm3JZ-2" target="9jR7RLaxLjTVR6PXm3JZ-10">
          <mxGeometry relative="1" as="geometry" />
        </mxCell>
        <mxCell id="9jR7RLaxLjTVR6PXm3JZ-12" value="No" style="edgeLabel;html=1;align=center;verticalAlign=middle;resizable=0;points=[];" vertex="1" connectable="0" parent="9jR7RLaxLjTVR6PXm3JZ-11">
          <mxGeometry x="-0.319" y="1" relative="1" as="geometry">
            <mxPoint as="offset" />
          </mxGeometry>
        </mxCell>
        <mxCell id="9jR7RLaxLjTVR6PXm3JZ-22" value="" style="edgeStyle=orthogonalEdgeStyle;rounded=0;orthogonalLoop=1;jettySize=auto;html=1;" edge="1" parent="1" source="9jR7RLaxLjTVR6PXm3JZ-2" target="9jR7RLaxLjTVR6PXm3JZ-21">
          <mxGeometry relative="1" as="geometry" />
        </mxCell>
        <mxCell id="9jR7RLaxLjTVR6PXm3JZ-25" value="Yes" style="edgeLabel;html=1;align=center;verticalAlign=middle;resizable=0;points=[];" vertex="1" connectable="0" parent="9jR7RLaxLjTVR6PXm3JZ-22">
          <mxGeometry x="0.3881" relative="1" as="geometry">
            <mxPoint as="offset" />
          </mxGeometry>
        </mxCell>
        <mxCell id="9jR7RLaxLjTVR6PXm3JZ-2" value="Has this happened before?" style="rhombus;whiteSpace=wrap;html=1;" vertex="1" parent="1">
          <mxGeometry x="380" y="240" width="80" height="80" as="geometry" />
        </mxCell>
        <mxCell id="9jR7RLaxLjTVR6PXm3JZ-6" value="check logs" style="text;html=1;whiteSpace=wrap;strokeColor=none;fillColor=none;align=center;verticalAlign=middle;rounded=0;" vertex="1" parent="1">
          <mxGeometry x="440" y="230" width="60" height="30" as="geometry" />
        </mxCell>
        <mxCell id="9jR7RLaxLjTVR6PXm3JZ-14" value="" style="edgeStyle=orthogonalEdgeStyle;rounded=0;orthogonalLoop=1;jettySize=auto;html=1;" edge="1" parent="1" source="9jR7RLaxLjTVR6PXm3JZ-10" target="9jR7RLaxLjTVR6PXm3JZ-13">
          <mxGeometry relative="1" as="geometry" />
        </mxCell>
        <mxCell id="9jR7RLaxLjTVR6PXm3JZ-10" value="What is causing this to happen(root cause analysis)." style="whiteSpace=wrap;html=1;" vertex="1" parent="1">
          <mxGeometry x="560" y="250" width="120" height="60" as="geometry" />
        </mxCell>
        <mxCell id="9jR7RLaxLjTVR6PXm3JZ-16" value="" style="edgeStyle=orthogonalEdgeStyle;rounded=0;orthogonalLoop=1;jettySize=auto;html=1;" edge="1" parent="1" source="9jR7RLaxLjTVR6PXm3JZ-13" target="9jR7RLaxLjTVR6PXm3JZ-15">
          <mxGeometry relative="1" as="geometry" />
        </mxCell>
        <mxCell id="9jR7RLaxLjTVR6PXm3JZ-19" value="Yes" style="edgeLabel;html=1;align=center;verticalAlign=middle;resizable=0;points=[];" vertex="1" connectable="0" parent="9jR7RLaxLjTVR6PXm3JZ-16">
          <mxGeometry x="-0.2122" y="-1" relative="1" as="geometry">
            <mxPoint as="offset" />
          </mxGeometry>
        </mxCell>
        <mxCell id="9jR7RLaxLjTVR6PXm3JZ-18" value="" style="edgeStyle=orthogonalEdgeStyle;rounded=0;orthogonalLoop=1;jettySize=auto;html=1;" edge="1" parent="1" source="9jR7RLaxLjTVR6PXm3JZ-13" target="9jR7RLaxLjTVR6PXm3JZ-17">
          <mxGeometry relative="1" as="geometry" />
        </mxCell>
        <mxCell id="9jR7RLaxLjTVR6PXm3JZ-20" value="No" style="edgeLabel;html=1;align=center;verticalAlign=middle;resizable=0;points=[];" vertex="1" connectable="0" parent="9jR7RLaxLjTVR6PXm3JZ-18">
          <mxGeometry x="-0.2048" y="-2" relative="1" as="geometry">
            <mxPoint as="offset" />
          </mxGeometry>
        </mxCell>
        <mxCell id="9jR7RLaxLjTVR6PXm3JZ-13" value="Will this happen again?" style="rhombus;whiteSpace=wrap;html=1;" vertex="1" parent="1">
          <mxGeometry x="580" y="380" width="80" height="80" as="geometry" />
        </mxCell>
        <mxCell id="9jR7RLaxLjTVR6PXm3JZ-15" value="Code changes needed to address this (add additonal checks or if it fixes to pipelines)" style="whiteSpace=wrap;html=1;" vertex="1" parent="1">
          <mxGeometry x="390" y="375" width="120" height="90" as="geometry" />
        </mxCell>
        <mxCell id="9jR7RLaxLjTVR6PXm3JZ-17" value="Address issue with producer to fix this one time event. (resend file/event)" style="whiteSpace=wrap;html=1;" vertex="1" parent="1">
          <mxGeometry x="720" y="390" width="120" height="60" as="geometry" />
        </mxCell>
        <mxCell id="9jR7RLaxLjTVR6PXm3JZ-24" value="" style="edgeStyle=orthogonalEdgeStyle;rounded=0;orthogonalLoop=1;jettySize=auto;html=1;" edge="1" parent="1" source="9jR7RLaxLjTVR6PXm3JZ-21" target="9jR7RLaxLjTVR6PXm3JZ-23">
          <mxGeometry relative="1" as="geometry">
            <Array as="points">
              <mxPoint x="120" y="280" />
              <mxPoint x="120" y="280" />
            </Array>
          </mxGeometry>
        </mxCell>
        <mxCell id="9jR7RLaxLjTVR6PXm3JZ-26" value="Yes" style="edgeLabel;html=1;align=center;verticalAlign=middle;resizable=0;points=[];" vertex="1" connectable="0" parent="9jR7RLaxLjTVR6PXm3JZ-24">
          <mxGeometry x="0.0738" y="2" relative="1" as="geometry">
            <mxPoint as="offset" />
          </mxGeometry>
        </mxCell>
        <mxCell id="9jR7RLaxLjTVR6PXm3JZ-21" value="Was this already previously addressed?" style="rhombus;whiteSpace=wrap;html=1;" vertex="1" parent="1">
          <mxGeometry x="150" y="215" width="110" height="130" as="geometry" />
        </mxCell>
        <mxCell id="9jR7RLaxLjTVR6PXm3JZ-23" value="Do nothing" style="whiteSpace=wrap;html=1;" vertex="1" parent="1">
          <mxGeometry x="-30" y="250" width="120" height="60" as="geometry" />
        </mxCell>
        <mxCell id="9jR7RLaxLjTVR6PXm3JZ-27" style="edgeStyle=orthogonalEdgeStyle;rounded=0;orthogonalLoop=1;jettySize=auto;html=1;entryX=0;entryY=0.611;entryDx=0;entryDy=0;entryPerimeter=0;" edge="1" parent="1" source="9jR7RLaxLjTVR6PXm3JZ-21" target="9jR7RLaxLjTVR6PXm3JZ-15">
          <mxGeometry relative="1" as="geometry">
            <Array as="points">
              <mxPoint x="210" y="430" />
            </Array>
          </mxGeometry>
        </mxCell>
        <mxCell id="9jR7RLaxLjTVR6PXm3JZ-29" value="No" style="edgeLabel;html=1;align=center;verticalAlign=middle;resizable=0;points=[];" vertex="1" connectable="0" parent="9jR7RLaxLjTVR6PXm3JZ-27">
          <mxGeometry x="0.3387" relative="1" as="geometry">
            <mxPoint as="offset" />
          </mxGeometry>
        </mxCell>
      </root>
    </mxGraphModel>
  </diagram>
</mxfile>
